<?xml version="1.0" encoding="utf-8"?>
<!-- Generator: Adobe Illustrator 25.4.1, SVG Export Plug-In . SVG Version: 6.00 Build 0)  -->
<svg version="1.1" id="Calque_1" xmlns="http://www.w3.org/2000/svg" xmlns:xlink="http://www.w3.org/1999/xlink" x="0px" y="0px"
	 viewBox="0 0 141.73 141.73" style="enable-background:new 0 0 141.73 141.73;" xml:space="preserve">
<style type="text/css">
	.st0{fill:none;stroke:#010202;stroke-width:1.8;stroke-linecap:round;stroke-linejoin:round;stroke-miterlimit:10;}
	.st1{fill:none;stroke:#E20E18;stroke-width:1.8;stroke-linecap:round;stroke-linejoin:round;stroke-miterlimit:10;}
</style>
<g>
	<g>
		<g>
			<path class="st0" d="M26.32,36.57h11.97c2.36,0,4.43,1.55,5.11,3.8l13.94,46.65c0.3,1,1.22,1.68,2.26,1.68h38.08"/>
			<path class="st0" d="M64.8,99.47c0,3.14-2.55,5.69-5.69,5.69c-3.15,0-5.69-2.55-5.69-5.69c0-3.15,2.55-5.69,5.69-5.69
				C62.25,93.78,64.8,96.33,64.8,99.47z"/>
			<path class="st0" d="M97.67,99.47c0,3.14-2.55,5.69-5.69,5.69c-3.14,0-5.69-2.55-5.69-5.69c0-3.15,2.55-5.69,5.69-5.69
				C95.12,93.78,97.67,96.33,97.67,99.47z"/>
			<path class="st0" d="M51.57,46.99h47.5c1.57,0,2.69,1.51,2.24,3.01L93.6,75.83c-0.43,1.45-1.77,2.45-3.29,2.45H54.72"/>
			<g>
				<line class="st0" x1="100.67" y1="52.15" x2="94.41" y2="73.13"/>
				<line class="st0" x1="87.23" y1="52.15" x2="84.1" y2="73.13"/>
				<line class="st0" x1="73.79" y1="52.15" x2="73.79" y2="73.13"/>
				<line class="st0" x1="60.35" y1="52.15" x2="63.49" y2="73.13"/>
				<line class="st0" x1="46.91" y1="52.15" x2="53.18" y2="73.13"/>
			</g>
			<path class="st1" d="M38.51,74.55"/>
			<path class="st1" d="M31.69,51.74"/>
		</g>
	</g>
</g>
</svg>
