<?xml version="1.0" encoding="utf-8"?>
<!-- Generator: Adobe Illustrator 25.4.1, SVG Export Plug-In . SVG Version: 6.00 Build 0)  -->
<svg version="1.1" id="Calque_1" xmlns="http://www.w3.org/2000/svg" xmlns:xlink="http://www.w3.org/1999/xlink" x="0px" y="0px"
	 viewBox="0 0 283.46 141.73" style="enable-background:new 0 0 283.46 141.73;" xml:space="preserve">
<style type="text/css">
	.st0{clip-path:url(#SVGID_00000068652459461110644320000000938742894976728199_);fill:#E6007E;}
	.st1{fill:#E6007E;}
	.st2{clip-path:url(#SVGID_00000176724098925764621270000009387827544577084317_);fill:#E6007E;}
	.st3{clip-path:url(#SVGID_00000176724098925764621270000009387827544577084317_);fill:#010202;}
	.st4{fill:#010202;}
	.st5{clip-path:url(#SVGID_00000144316700544422248090000011069232204733037234_);fill:#010202;}
	.st6{fill:#FFFFFF;}
	.st7{fill:none;stroke:#010202;stroke-width:9.558;stroke-miterlimit:10;}
	.st8{clip-path:url(#SVGID_00000124845087322525589430000018399125983719887806_);}
</style>
<g>
	<defs>
		<rect id="SVGID_1_" x="7.24" y="46.71" width="268.85" height="64.72"/>
	</defs>
	<clipPath id="SVGID_00000167398577399485107360000000166775360011371674_">
		<use xlink:href="#SVGID_1_"  style="overflow:visible;"/>
	</clipPath>
	<path style="clip-path:url(#SVGID_00000167398577399485107360000000166775360011371674_);fill:#E6007E;" d="M257.93,49.83
		l7.93,1.34c0,0,0,0,0,0l-0.63,3.61l-7.93-1.35L257.93,49.83z M266.26,61.91l0.84-4.52l6.4,1.09c0,0,0,0,0,0l-4.05,28.33
		c0,0,0,0,0,0l-26.97-4.57l5.77-28.04l6.41,1.09l-0.84,4.52l2.26,0.36l0.84-4.5l7.93,1.34l-0.84,4.5L266.26,61.91z M276.08,56.62
		C276.08,56.62,276.08,56.62,276.08,56.62l-8.6-1.46l0.82-4.72l-0.94-1.31l-10.18-1.73l-1.32,0.92l-0.82,4.72l-8.6-1.46l-6.68,32.47
		l31.62,5.36c0,0,0,0,0,0L276.08,56.62z"/>
	<path style="clip-path:url(#SVGID_00000167398577399485107360000000166775360011371674_);fill:#E6007E;" d="M25.96,79.5
		c-1.25,0.57-3.71,1.18-6.64,1.18c-7.31,0-12.08-4.58-12.08-11.7c0-6.89,4.81-12.27,13.04-12.27c2.17,0,4.38,0.47,5.73,1.08
		l-1.06,4.34c-0.96-0.43-2.36-0.9-4.48-0.9c-4.52,0-7.22,3.26-7.17,7.45c0,4.72,3.13,7.41,7.17,7.41c2.07,0,3.51-0.43,4.67-0.9
		L25.96,79.5z"/>
</g>
<rect x="27.45" y="46.71" class="st1" width="5.97" height="33.5"/>
<g>
	<defs>
		<rect id="SVGID_00000135661329987892018730000000065716620780115129_" x="7.24" y="46.71" width="268.85" height="64.72"/>
	</defs>
	<clipPath id="SVGID_00000002362223961500733050000010294073710869872567_">
		<use xlink:href="#SVGID_00000135661329987892018730000000065716620780115129_"  style="overflow:visible;"/>
	</clipPath>
	<path style="clip-path:url(#SVGID_00000002362223961500733050000010294073710869872567_);fill:#E6007E;" d="M36.93,57.23h5.97
		v22.98h-5.97V57.23z M43.23,50.81c0,1.75-1.3,3.11-3.37,3.11c-1.97,0-3.27-1.37-3.27-3.11c0-1.79,1.35-3.16,3.32-3.16
		C41.93,47.65,43.19,49.02,43.23,50.81"/>
	<path style="clip-path:url(#SVGID_00000002362223961500733050000010294073710869872567_);fill:#E6007E;" d="M63.59,79.5
		c-1.25,0.57-3.71,1.18-6.64,1.18c-7.31,0-12.08-4.58-12.08-11.7c0-6.89,4.81-12.27,13.04-12.27c2.17,0,4.38,0.47,5.73,1.08
		l-1.06,4.34c-0.96-0.43-2.36-0.9-4.48-0.9c-4.52,0-7.22,3.26-7.17,7.45c0,4.72,3.13,7.41,7.17,7.41c2.07,0,3.51-0.43,4.67-0.9
		L63.59,79.5z"/>
	<path style="clip-path:url(#SVGID_00000002362223961500733050000010294073710869872567_);fill:#E6007E;" d="M71,67.33h0.1
		c0.58-0.9,1.25-1.89,1.88-2.69l5.68-7.41h7.12l-8.66,9.39l9.91,13.59h-7.27l-6.74-10.14L71,72.38v7.83h-5.92v-33.5H71V67.33z"/>
	<path style="clip-path:url(#SVGID_00000002362223961500733050000010294073710869872567_);fill:#010202;" d="M106.57,58.45
		c0,1.98,0.93,3.51,2.15,5c2.86-1.61,4.72-3.1,4.72-5.45c0-1.69-0.97-3.59-3.28-3.59C107.79,54.41,106.57,56.31,106.57,58.45
		 M115.2,75.42c-1.68-1.82-4.84-5.2-8-8.75c-1.52,0.95-3.66,2.73-3.66,5.66c0,3.18,2.4,5.61,5.81,5.61
		C111.79,77.94,113.86,76.86,115.2,75.42 M119.67,80.21c-0.8-0.78-1.56-1.57-2.65-2.72c-2.44,2.23-5.18,3.18-8.3,3.18
		c-5.52,0-8.72-3.63-8.72-7.8c0-3.8,2.32-6.4,5.56-8.13V64.6c-1.47-1.82-2.36-3.84-2.36-5.82c0-3.38,2.48-6.85,7.2-6.85
		c3.54,0,6.27,2.31,6.27,5.9c0,2.93-1.73,5.24-6.23,7.43v0.12c2.4,2.72,5.1,5.78,6.91,7.76c1.31-1.94,2.19-4.62,2.74-8.13h3.37
		c-0.76,4.38-1.98,7.84-4.08,10.28c1.52,1.57,2.99,3.14,4.67,4.91H119.67z"/>
	<path style="clip-path:url(#SVGID_00000002362223961500733050000010294073710869872567_);fill:#010202;" d="M143.88,79.5
		c-1.25,0.57-3.71,1.18-6.64,1.18c-7.31,0-12.08-4.58-12.08-11.7c0-6.89,4.81-12.27,13.04-12.27c2.17,0,4.38,0.47,5.73,1.08
		l-1.06,4.34c-0.96-0.43-2.36-0.9-4.48-0.9c-4.52,0-7.22,3.26-7.17,7.45c0,4.72,3.13,7.41,7.17,7.41c2.07,0,3.51-0.43,4.67-0.9
		L143.88,79.5z"/>
	<path style="clip-path:url(#SVGID_00000002362223961500733050000010294073710869872567_);fill:#010202;" d="M149.56,68.74
		c0,4.43,2.21,7.78,5.82,7.78c3.37,0,5.73-3.26,5.73-7.88c0-3.59-1.64-7.69-5.68-7.69C151.24,60.96,149.56,64.92,149.56,68.74
		 M167.22,68.51c0,8.45-6.06,12.22-12.03,12.22c-6.64,0-11.74-4.48-11.74-11.84c0-7.55,5.05-12.17,12.13-12.17
		C162.55,56.71,167.22,61.53,167.22,68.51"/>
</g>
<rect x="169.19" y="46.71" class="st4" width="5.97" height="33.5"/>
<rect x="178.67" y="46.71" class="st4" width="5.97" height="33.5"/>
<g>
	<defs>
		<rect id="SVGID_00000163752011337371437010000004265042272758932394_" x="7.24" y="46.71" width="268.85" height="64.72"/>
	</defs>
	<clipPath id="SVGID_00000067219581061940453600000005995891701074402238_">
		<use xlink:href="#SVGID_00000163752011337371437010000004265042272758932394_"  style="overflow:visible;"/>
	</clipPath>
	<path style="clip-path:url(#SVGID_00000067219581061940453600000005995891701074402238_);fill:#010202;" d="M202.64,66.29
		c0.05-2.12-0.91-5.61-4.86-5.61c-3.66,0-5.2,3.26-5.44,5.61H202.64z M192.34,70.35c0.14,4.15,3.46,5.94,7.22,5.94
		c2.74,0,4.72-0.38,6.5-1.04l0.87,4.01c-2.02,0.8-4.81,1.42-8.18,1.42c-7.6,0-12.08-4.58-12.08-11.61c0-6.37,3.95-12.36,11.45-12.36
		c7.6,0,10.11,6.13,10.11,11.18c0,1.08-0.1,1.93-0.19,2.45H192.34z"/>
	<path style="clip-path:url(#SVGID_00000067219581061940453600000005995891701074402238_);fill:#010202;" d="M227.33,79.5
		c-1.25,0.57-3.71,1.18-6.64,1.18c-7.31,0-12.08-4.58-12.08-11.7c0-6.89,4.81-12.27,13.04-12.27c2.17,0,4.38,0.47,5.73,1.08
		l-1.06,4.34c-0.96-0.43-2.36-0.9-4.48-0.9c-4.52,0-7.22,3.26-7.17,7.45c0,4.72,3.13,7.41,7.17,7.41c2.07,0,3.51-0.43,4.67-0.9
		L227.33,79.5z"/>
	<path style="clip-path:url(#SVGID_00000067219581061940453600000005995891701074402238_);fill:#010202;" d="M236.32,50.67v6.56
		h5.63v4.34h-5.63v10.14c0,2.78,0.77,4.25,3.03,4.25c1.01,0,1.78-0.14,2.31-0.28l0.1,4.43c-0.87,0.33-2.41,0.57-4.28,0.57
		c-2.17,0-3.99-0.71-5.1-1.89c-1.25-1.32-1.83-3.4-1.83-6.42v-10.8h-3.37v-4.34h3.37v-5.19L236.32,50.67z"/>
</g>
<polyline class="st6" points="104.26,89.87 105.86,88.39 100.75,81.79 105.02,79.29 90.5,71.56 95.08,88.53 98.03,84.32 
	103.13,90.92 104.73,89.43 "/>
<polyline class="st7" points="104.26,89.87 105.86,88.39 100.75,81.79 105.02,79.29 90.5,71.56 95.08,88.53 98.03,84.32 
	103.13,90.92 104.73,89.43 "/>
<polygon class="st4" points="83.13,66.81 80.27,63.51 81.57,62.43 84.42,65.74 "/>
<polygon class="st4" points="89.14,64.92 87.45,64.78 87.81,60.47 89.51,60.6 "/>
<polygon class="st4" points="93.07,67.62 91.97,66.35 95.34,63.55 96.44,64.81 "/>
<polygon class="st4" points="81.53,71.25 77.13,70.89 77.27,69.23 81.67,69.59 "/>
<polygon class="st4" points="80.24,78.28 79.14,77.02 82.51,74.21 83.6,75.48 "/>
<g>
	<defs>
		<rect id="SVGID_00000088097402052622553230000013729351028266750626_" x="7.24" y="46.71" width="268.85" height="64.72"/>
	</defs>
	<clipPath id="SVGID_00000002385807560824350660000017767563232746893697_">
		<use xlink:href="#SVGID_00000088097402052622553230000013729351028266750626_"  style="overflow:visible;"/>
	</clipPath>
	<path style="clip-path:url(#SVGID_00000002385807560824350660000017767563232746893697_);" d="M228.89,105.02h1.55v-1.72h-4.96
		v1.72h1.55v6.1h1.87V105.02z M224.87,105.02v-1.72h-4.09v7.82h4.09v-1.72h-2.22v-1.35h2.11v-1.72h-2.11v-1.31H224.87z
		 M216.16,104.85h0.18c0.61,0,1.3,0.12,1.3,0.97s-0.69,0.97-1.3,0.97h-0.18V104.85z M218.01,107.91c1.02-0.2,1.57-1.13,1.57-2.21
		c0-1.67-1.08-2.4-2.5-2.4h-2.79v7.82h1.87v-3.01h0.02l1.77,3.01h2.33L218.01,107.91z M210.74,108.2h-1.55l0.77-2.49h0.02
		L210.74,108.2z M211.25,109.76l0.47,1.36h1.99L211,103.3h-2.04l-2.77,7.82h1.98l0.5-1.36H211.25z M203.99,103.3h-1.87v7.82h4.11
		v-1.72h-2.24V103.3z M200.96,103.49c-0.55-0.25-1.11-0.39-1.71-0.39c-1.01,0-2.03,0.48-2.74,1.26c-0.69,0.77-1.06,1.79-1.06,2.86
		c0,1.16,0.36,2.18,1.15,2.96c0.74,0.74,1.7,1.15,2.7,1.15c0.58,0,1.03-0.16,1.65-0.36v-2.44c-0.39,0.51-1,0.83-1.61,0.83
		c-1.16,0-1.95-0.89-1.95-2.13c0-1.21,0.77-2.17,1.92-2.17c0.64,0,1.26,0.3,1.64,0.86V103.49z M188.66,104.78
		c0.96,0,1.19,1.66,1.19,2.42c0,0.76-0.23,2.44-1.19,2.44s-1.19-1.68-1.19-2.44C187.47,106.44,187.7,104.78,188.66,104.78
		 M188.66,102.99c-2.14,0-3.05,2.19-3.05,4.22c0,2.03,0.91,4.22,3.05,4.22s3.05-2.19,3.05-4.22
		C191.72,105.17,190.8,102.99,188.66,102.99 M182.53,105.02l-3.28,6.1h2.05l4.13-7.82h-5.91v1.72H182.53z M176.04,109.4l1.12-1.13
		c0.73-0.73,1.16-1.38,1.16-2.5c0-1.7-1.27-2.78-2.78-2.78c-1.7,0-2.75,1.21-2.8,3.01h2.06c-0.02-0.11-0.03-0.23-0.03-0.33
		c0-0.53,0.28-0.95,0.78-0.95c0.5,0,0.82,0.52,0.82,1.02c0,0.72-0.4,1.42-0.82,1.92l-2.94,3.47h5.78v-1.72H176.04z M169.4,107.95
		h-1.7l1.68-3.01h0.02V107.95z M171.14,107.95v-4.65h-2.45l-2.78,4.9v1.3h3.49v1.62h1.74v-1.62H172v-1.55H171.14z M161.64,105.55
		c-0.01-0.51,0.29-0.9,0.76-0.9c0.42,0,0.73,0.31,0.73,0.79c0,0.54-0.34,0.86-0.82,0.86h-0.19v1.36c0.11-0.03,0.21-0.06,0.32-0.06
		c0.52,0,0.99,0.46,0.99,1.05c0,0.63-0.43,1.05-1,1.05c-0.59,0-1-0.49-1-1.11h-1.91c-0.02,0.68,0.39,1.49,0.82,1.97
		c0.58,0.64,1.33,0.88,2.15,0.88c1.43,0,2.79-0.88,2.79-2.59c0-0.8-0.41-1.75-1.17-1.97c0.52-0.32,0.75-0.99,0.75-1.61
		c0-1.46-1.01-2.27-2.3-2.27c-0.73,0-1.37,0.23-1.83,0.67s-0.76,1.07-0.84,1.89H161.64z M152.7,108.57h2.73v-1.55h-2.73V108.57z
		 M147.31,105.02h1.55v-1.72h-4.96v1.72h1.55v6.1h1.87V105.02z M143.29,105.02v-1.72h-4.09v7.82h4.09v-1.72h-2.22v-1.35h2.11v-1.72
		h-2.11v-1.31H143.29z M129.39,111.12h1.86l0.6-4.5h0.02l1.65,4.5h0.74l1.73-4.5h0.02l0.52,4.5h1.87l-1.09-7.82h-1.86l-1.55,4.18
		l-1.46-4.18h-1.84L129.39,111.12z M125.21,104.85h0.18c0.61,0,1.3,0.12,1.3,0.97s-0.69,0.97-1.3,0.97h-0.18V104.85z M127.06,107.91
		c1.02-0.2,1.57-1.13,1.57-2.21c0-1.67-1.08-2.4-2.5-2.4h-2.8v7.82h1.87v-3.01h0.02l1.77,3.01h2.33L127.06,107.91z M122.18,105.02
		v-1.72h-4.09v7.82h4.09v-1.72h-2.22v-1.35h2.11v-1.72h-2.11v-1.31H122.18z M112.3,106.32v-3.02h-1.87v7.82h1.87v-3.2h2.7v3.2h1.87
		v-7.82H115v3.02H112.3z M108.01,103.3l-1.24,3.43h1.11l1.76-3.43H108.01z M104.73,103.3h-1.87v7.82h4.11v-1.72h-2.24V103.3z
		 M98.43,105.02v-1.72h-4.09v7.82h4.09v-1.72h-2.22v-1.35h2.11v-1.72h-2.11v-1.31H98.43z M89.03,105.02h0.44
		c1.2,0,2.05,0.79,2.05,2.19c0,1.52-0.95,2.19-2.07,2.19h-0.42V105.02z M87.17,111.12h2.65c1.99,0,3.65-1.71,3.65-3.91
		c0-2.2-1.65-3.91-3.65-3.91h-2.65V111.12z M82.74,105.02v-1.72h-4.09v7.82h4.09v-1.72h-2.22v-1.35h2.11v-1.72h-2.11v-1.31H82.74z
		 M77.49,103.49c-0.55-0.25-1.11-0.39-1.71-0.39c-1.01,0-2.03,0.48-2.74,1.26c-0.69,0.77-1.06,1.79-1.06,2.86
		c0,1.16,0.36,2.18,1.15,2.96c0.74,0.74,1.7,1.15,2.7,1.15c0.58,0,1.03-0.16,1.65-0.36v-2.44c-0.39,0.51-1,0.83-1.61,0.83
		c-1.16,0-1.95-0.89-1.95-2.13c0-1.21,0.77-2.17,1.92-2.17c0.64,0,1.26,0.3,1.64,0.86V103.49z M68.8,108.2h-1.56l0.77-2.49h0.02
		L68.8,108.2z M69.3,109.76l0.47,1.36h1.99l-2.71-7.82h-2.04l-2.77,7.82h1.98l0.5-1.36H69.3z M62.04,103.3h-1.87v7.82h4.11v-1.72
		h-2.24V103.3z M55.74,104.94h0.32c0.73,0,1.35,0.01,1.35,1c0,0.95-0.67,0.95-1.35,0.95h-0.32V104.94z M53.87,111.12h1.87v-2.59
		h1.06c1.63,0,2.55-0.81,2.55-2.65c0-1.79-1.07-2.57-2.61-2.57h-2.86V111.12z M48.8,105.02v-1.72h-3.74l-0.63,4.24
		c0.43-0.22,0.9-0.32,1.37-0.32c0.74,0,1.57,0.39,1.57,1.34c0,0.69-0.55,1.15-1.15,1.15c-0.74,0-1.45-0.36-2-0.9l-0.28,1.92
		c0.7,0.49,1.53,0.7,2.35,0.7c0.72,0,1.53-0.16,2.1-0.65c0.59-0.53,0.92-1.3,0.92-2.12c0-1.62-1.08-2.93-2.55-2.8l-0.59,0.05
		l0.12-0.89H48.8z M40.18,104.59c0.66,0,1.19,0.57,1.19,1.29c0,0.72-0.53,1.29-1.19,1.29c-0.66,0-1.16-0.57-1.16-1.29
		C39.03,105.16,39.53,104.59,40.18,104.59 M40.5,111.12l1.54-2.19c0.62-0.89,1.15-1.98,1.15-3.11c0-0.82-0.38-1.65-0.96-2.16
		c-0.55-0.49-1.35-0.67-2.05-0.67c-1.64,0-3.09,1.04-3.09,2.95c0,1.44,0.9,2.76,2.31,2.76c0.38,0,0.69-0.08,1.01-0.24l0.02,0.02
		l-2.05,2.63H40.5z"/>
</g>
</svg>
