<?xml version="1.0" encoding="utf-8"?>
<!-- Generator: Adobe Illustrator 25.4.1, SVG Export Plug-In . SVG Version: 6.00 Build 0)  -->
<svg version="1.1" id="Calque_1" xmlns="http://www.w3.org/2000/svg" xmlns:xlink="http://www.w3.org/1999/xlink" x="0px" y="0px"
	 viewBox="0 0 141.73 283.46" style="enable-background:new 0 0 141.73 283.46;" xml:space="preserve">
<style type="text/css">
	.st0{fill-rule:evenodd;clip-rule:evenodd;fill:#2D83C5;}
	.st1{fill-rule:evenodd;clip-rule:evenodd;fill:#E83473;}
	.st2{fill-rule:evenodd;clip-rule:evenodd;fill:#FFE00A;}
	.st3{fill-rule:evenodd;clip-rule:evenodd;fill:#24211D;}
	.st4{fill-rule:evenodd;clip-rule:evenodd;fill:#AAACAD;}
	.st5{fill:#363337;}
</style>
<g>
	<rect x="59.61" y="103.76" class="st0" width="22.52" height="22.53"/>
	<rect x="59.61" y="128.38" class="st1" width="22.52" height="22.52"/>
	<rect x="59.61" y="153" class="st2" width="22.52" height="22.53"/>
	<rect x="59.61" y="177.62" class="st3" width="22.52" height="22.52"/>
	<rect x="59.61" y="202.23" class="st4" width="22.52" height="22.53"/>
</g>
<g>
	<path class="st5" d="M71.16,44.53v0.62h0.31v-0.62H71.16z M71.16,52.91h0.31v-0.62h-0.31V52.91z M71.16,49.81h0.31v-0.62h-0.31
		V49.81z M71.16,51.36h0.31v-0.62h-0.31V51.36z M71.16,48.25h0.31v-0.62h-0.31V48.25z M71.16,54.46h0.31v-0.62h-0.31V54.46z
		 M71.16,46.7h0.31v-0.62h-0.31V46.7z M71.16,74.62h0.31V74h-0.31V74.62z M71.16,65.31h0.31v-0.62h-0.31V65.31z M71.16,68.41h0.31
		v-0.62h-0.31V68.41z M71.16,66.86h0.31v-0.62h-0.31V66.86z M71.16,69.97h0.31v-0.62h-0.31V69.97z M71.16,73.07h0.31v-0.62h-0.31
		V73.07z M71.16,71.52h0.31V70.9h-0.31V71.52z"/>
	<path class="st5" d="M86.36,59.42h-0.62v0.31h0.62V59.42z M77.99,59.42v0.31h0.62v-0.31H77.99z M81.09,59.42v0.31h0.62v-0.31H81.09
		z M79.54,59.42v0.31h0.62v-0.31H79.54z M82.64,59.42v0.31h0.62v-0.31H82.64z M76.44,59.42v0.31h0.62v-0.31H76.44z M84.19,59.42
		v0.31h0.62v-0.31H84.19z M56.28,59.42v0.31h0.62v-0.31H56.28z M65.58,59.42v0.31h0.62v-0.31H65.58z M62.48,59.42v0.31h0.62v-0.31
		H62.48z M64.03,59.42v0.31h0.62v-0.31H64.03z M60.93,59.42v0.31h0.62v-0.31H60.93z M57.83,59.42v0.31h0.62v-0.31H57.83z
		 M59.38,59.42v0.31H60v-0.31H59.38z"/>
	<g>
		<path class="st3" d="M71.54,59.38v-3.33c1.79,0,3.27,1.47,3.27,3.33H71.54z"/>
		<path class="st1" d="M71.54,59.77v3.33c1.79,0,3.27-1.47,3.27-3.33H71.54z"/>
		<path class="st2" d="M71.1,59.38v-3.33c-1.8,0-3.27,1.47-3.27,3.33H71.1z"/>
		<path class="st0" d="M71.1,59.77v3.33c-1.8,0-3.27-1.47-3.27-3.33H71.1z"/>
	</g>
</g>
</svg>
